<?xml version="1.0" encoding="UTF-8"?>
<svg id="Layer_2" data-name="Layer 2" xmlns="http://www.w3.org/2000/svg" viewBox="0 0 1232.98 660.04">
  <defs>
    <style>
      .cls-1 {
        fill: #57b8c1;
      }

      .cls-2 {
        fill: #f1e912;
      }

      .cls-3 {
        fill: #fee600;
      }

      .cls-4 {
        fill: #fff;
      }

      .cls-5 {
        fill: #1f7741;
      }

      .cls-6 {
        fill: #0a0c0b;
      }
    </style>
  </defs>
  <path class="cls-2" d="M47.77,182.05s140.53-32.23,191.28-35.88c47.99-3.45,148.18,9.99,186.16,50.57,5.86,6.26,26.77-45,26.77-45l-106.06-47.66-26.74-68.92-58.63,26.74-57.65-23.13-42.02-.98-63.25,86.24-80.03-5.06,30.16,63.07Z"/>
  <path class="cls-1" d="M320.63,464.01c43.39,0,15.15-293.91-121.36-329.75C-22.21,76.11-17.57,442.31,48.83,557.2c66.4,114.89,153.71,107.65,207.74,93.19,43.22-11.57-3.32-137.43-8.33-186.38-1.06-10.35,30.97,0,72.38,0Z"/>
  <path class="cls-3" d="M266.58,71.68c-12.38,3.41-64.49-33.83-86.74-29.29-23.71,4.84-54.65,54.22-59.12,77.24,66.86,1.31,133.75-6.91,199.81-15.98,5.47-.75,13.97,1.03,13.95-5.37-.01-4.8-18.49-53.68-21.21-54.87-7.87-3.45-38.16,25.92-46.69,28.27Z"/>
  <path class="cls-6" d="M270.57,585.18c-14.09,2.46-61.57,10.37-72.29,4.86-10.43-5.36-7.48-25.33-12.89-30.56-1.72-1.67-37.98-13.23-45.05-16.4-39.8-17.82-100.67-62.38-123.52-99.76-6.14-10.05-9.19-14.38-4-25.97,4.18-9.32,25.78-31.26,26.06-39.45.35-9.99-21.73-65.05-26.06-79.43-2.57-8.54-13.54-41.87-12.79-48.17.93-7.81,22.69-20.73,29.77-25.75,4.18-2.97,32.94-20.21,32.93-22.48-3.85-5.14-11.65-8.42-15.95-12.49-11.87-11.23-23.25-24.45-29.82-39.61-4.49-10.35-17.31-42.71,3.29-43.32l77.31,10.81c15.86-34.38,46.94-100.83,93.32-95.46,17.09,1.98,62.31,28.09,71.11,27.69,16.8-.78,44.21-47.3,65.93-20.86,10.26,12.48,25.75,70.67,28.96,72.94,2.34,1.65,24.04,2.91,29.76,4.21,19.59,4.44,43.09,19.62,58.22,32.7,7.39,6.39,23.79,18.37,18.97,28.9-4.82,10.52-41.97,38.25-43.43,46.56l38.73,119.6c-13.29,24.28-36.87,42.45-52.24,65.63l-17.21,152.62c-1.8,4.41-4.26,5.1-8.21,6.77-22.68,9.6-84.76,21.89-110.91,26.45ZM266.58,71.68c-12.38,3.41-64.49-33.83-86.74-29.29-23.71,4.84-54.65,54.22-59.12,77.24,66.86,1.31,133.75-6.91,199.81-15.98,5.47-.75,13.97,1.03,13.95-5.37-.01-4.8-18.49-53.68-21.21-54.87-7.87-3.45-38.16,25.92-46.69,28.27ZM247.6,132.62c-1.28-1.27-31.24,2.6-35.97,3-40.61,3.47-73.97,5.21-114.89,2-9.05-.71-62.65-10.33-64.93-7.99-6.19,6.34,20.85,37.09,25.97,41.95,3.54,3.37,20.83,18.55,24.48,18.58,7.77.08,41.1-27.79,53.47-26.18,4.18.54,65.52,39.36,71.62,44.34,10.02,8.18,15.39,23.6-1.51,20.54-14.89-2.7-63.85-43.08-74.52-42.28-6.61.5-48.98,27.13-57.47,32.54-6.3,4.01-49.31,32.27-50.51,35.41-1.95,5.11,26.69,102.19,31.5,104.81,1.25.68,2.45-.37,3.48-.89,16.33-8.19,50.32-56.46,69.43-67.43,4.68-2.68,13.53-3.1,14.78,3.17-.54,3.98-1.67,7.78-7.21,14.17-8.66,9.99-13.44,14.72-18.62,20.56-13.99,13.69-81.85,81.12-84.68,95.19-1.29,6.4,7.73,15.57,11.79,20.68,28.02,35.29,76.06,69.3,117.89,85.91,3.21,1.27,17.75,8.35,18.87,4.92l-40.88-168.22h19.98c7.64,33.86,17.55,67.27,25.97,100.9,6.47,25.8,10.98,52.2,17.98,77.92.97,3.56,4.89,22.09,5.92,23.3,2.71,3.19,40.35.81,42.45-1.19,1.24-1.18.49-15.9.58-19.11.77-26.89-5.16-32.23,12.99-53.95,2.03-2.43,15.72-12.71,13.57-16.03-1.59-2.44-27.98-8.43-32.55-9.95-15.65-5.17-43.12-7.38-26.48-28.98,1.95-2.53,23.32-21.97,24.98-21.97h39.96c2.36,0,1.55-21.01,1.53-23.51-.27-56.45-7.75-116.54-6.08-172.74.18-6.11.15-13.99,3.04-19.53,6.02-11.54,29.05-18.52,41.43-17.95,27.1,1.26,78.81,36.96,54.44,67.37-20.59,25.7-66.9,11.85-66.9-15.95v-28.47c-15.84,2.06-11.79,15.39-11.99,26.97-1.28,74.43,10.14,152.94,6.99,226.78-1.12,26.24-4.31,22.19-19.98,40.96-4.14,4.96-11.78,9.42-14.2,16.27-3.08,8.7-.96,13.65-.78,21.7.02,1-.04,2,0,3v17.98l98.68-22.22,17.49-147.84,48.75-62.22-39.84-119.61c.43-9.68,43.14-42.61,42.68-47.08-42.86-52.64-112.11-41.19-171.23-31.6-2.25,2.44-2.22,41.27-2.52,47.93-2.84,63.98-3.7,128.09-6.21,192.09-1.45,11.04-45.24,7.29-48.33,3.81-2.99-3.38-2.69-12.54,1.19-14.98,5.69-3.58,25.78,2.32,28.37-4.6-.75-59.98,6.86-122.13,6.05-181.77l-.04-40.52ZM335,206.58c-1.42.45-1.02,26.49-.51,29.47,3.02,17.76,30,10.19,31.58-.46,1.32-8.9-27.16-30.25-31.06-29.01ZM287.06,436.32h-31.97c-1.99,0-10.5,8.58-13.02,9.96l.57,2.5,46.4,11.54-1.98-24Z"/>
  <path d="M147.82,220c-15.29.37-36.02,9.95-44.64,22.99-15.76,23.84,31.49,41.85,50.78,40.6,13.21-.85,35.56-11.56,43.03-22.67,14.71-21.89-30.8-41.36-49.17-40.92Z"/>
  <g>
    <path d="M524.12,471.37v-5.74c17.17-53.8,36.98-106.97,53.28-161.05,3.01-9.99,7.42-21.94,9.52-31.85,1.03-4.9,2.41-10.14.53-14.95-10.9,1.13-16.83,20.27-28.22,20.75-9.57.4-7.92-15.15-5.39-21.56,15.21-38.53,83.27-18.13,103.84,7.15,24.4,29.98,7.61,70.96-32.25,65.46-4.26-2.71,7.24-15.56,8.36-19.31,2.09-7.04-.24-23.26-1.75-30.92-1.15-5.81-4.99-19.06-9.42-22.76-4.09-3.4-23.86-5.58-26.58-1.12-2.4,3.93,12.78,33.91,13.25,42.08.39,6.76-14.69,37.3-18.52,45.62-15.95,34.63-33.5,70.43-50.67,104.51-3.94,7.81-7.82,20.13-15.96,23.71Z"/>
    <path d="M1155.19,325.53c.38,1.87-.47,2.38-1.87,3.29-3.49,2.27-21.13,4.57-26.68,5.55-78.55,13.98-157.82,24.48-236.56,37.42-84.27,13.85-168.33,30.27-252.73,43.11-13.23,2.01-29.4,5.42-42.45,5.95-3.16.13-5.64-.25-8.59-1.18-3.41-5.05,14.65-11.46,17.82-12.64,30.34-11.3,74.1-20.71,106.31-27.2,106.12-21.38,220.04-36.5,327.87-47.41,33.38-3.38,72.97-8.88,105.98-9.23,3.81-.04,7.24,1.73,10.89,2.34Z"/>
    <path d="M876.51,316.32c2.29,2.3,20.3-12.87,23.57-14.96,9.16-5.85,19.07-11.06,28.62-16.24,8.61-4.67,34.98-19.66,42.94-20.42,10.51-1.01,40.86,19.68,41.89,30.5.92,9.65-22.06,18.17-29.88,19.46-3.12.52-6.13.73-9.28.51.05-8.06,5.45-13.32,1.4-21.5-1.32-2.65-10.34-11.4-12.99-12.4-3.11-1.17-8.69,2.56-11.79,4.26-29.3,16.03-59.96,47.04-95.85,44.61-7.75-.53-19.47-5.97-25.21-5.71-11.44.52-29.68,15.8-47.26,17.19-14.82,1.17-40.82.19-39.76-20.11.99-18.89,22.97-65.91,46.59-61.44,18.23,3.45-14.36,32.93-18.41,37.86-5.11,6.23-17.81,20.34-9.04,27.42,10.81,8.72,46.87,7.32,55.72-3.83,10.02-12.63-6.21-35.4,19.78-43.44,6.96-2.15,16.82-.84,21.96-3.36s7.05-11.69,14.78-15.12c17.14-7.6,15.49,16.55,13.18,26.92s-11.29,18.64-10.99,29.79ZM857.77,286.67c-16.84,3.5,6.14,30.31,8.93,29.65,6.12-6.81,2.97-32.13-8.93-29.65Z"/>
    <path d="M1141.07,222.39c1.69-.35,3.36-.66,4.96.29,2.09,1.4,3.05,16.05,3.97,20.16,2.69,12.03,11.91,27.68,5.02,39.44-6.06,10.35-40.63,22.68-52.37,23.58-8.96.69-12.48-1.21-11.83-10.61,1.22-17.77,32.22-69.18,50.25-72.85ZM1137.9,257.76c-2.79-2.15-14.16,14.91-14.75,18.08-1.37,7.32,4.75,11.39,10.73,7.17,10.39-7.33,6.62-14.69,4.02-25.25Z"/>
    <path d="M1028.89,309.79c2.7-3.19,9.34-6.02,12.89-10.66,7.19-9.39,6.37-26.7,1.79-37.22l-2.92-.75c-1.07.33-2.05,5.65-5.22,4.63-2.87-3.26,8.31-32.92,15.38-34.36,3.9.68,15.38,24.98,17.4,29.81,6.99,16.73,14.9,35.88-6.31,45.31-4.62,2.05-27.79,8.84-31.78,8.57-3.42-.23-3.1-3.12-1.22-5.33Z"/>
    <path d="M702.33,302.76c14.36-2.75,19.17,31.71,15.87,41.16-2.86,8.19-12.05,15.49-20.57,10.1-11.38-7.2-14.72-30.1-8.17-41.06,1.84-3.08,9.31-9.52,12.87-10.2Z"/>
    <path d="M715.86,265.07c4.47-.03,18.36,12.96,13.26,18.55-8.14,8.94-26.79-18.47-13.26-18.55Z"/>
  </g>
  <path class="cls-5" d="M287.06,436.32h-31.97c-1.99,0-10.5,8.58-13.02,9.96l.57,2.5,46.4,11.54-1.98-24Z"/>
  <path class="cls-4" d="M159.14,231.78c-7.12-.71-11.5,2.51-16.25,8.06-8.68,10.15,6.42,21.27,15.44,21.8,6.18.36,17.17-3.32,21.27-8.04,8.08-9.31-11.92-20.96-20.46-21.82Z"/>
</svg>