<?xml version="1.0" encoding="UTF-8"?>
<svg id="Layer_2" data-name="Layer 2" xmlns="http://www.w3.org/2000/svg" viewBox="0 0 633.56 249.42">
  <path d="M622.04,0c2.87,7.45,2.77,15.52,4.69,23.46,1.74,7.2,4.92,14.17,6.82,21.33v10.34c-6.47,14.69-29.56,22.73-44.42,26.33-18.88,4.57-26.56,3.96-20.12-17.77,6.89-23.27,26.88-50.51,47.27-63.68h5.76ZM613.97,35.61c-2.79-2.15-14.16,14.91-14.75,18.08-1.37,7.32,4.75,11.39,10.73,7.17,10.39-7.33,6.62-14.69,4.02-25.25Z"/>
  <path d="M631.25,103.37c.38,1.87-.47,2.38-1.87,3.29-3.49,2.27-21.13,4.57-26.68,5.55-78.55,13.98-157.82,24.48-236.56,37.42-84.27,13.85-168.33,30.27-252.73,43.11-13.23,2.01-29.4,5.42-42.45,5.95-3.16.13-5.64-.25-8.59-1.18-3.41-5.05,14.65-11.46,17.82-12.64,30.34-11.3,74.1-20.71,106.31-27.2,106.12-21.38,220.04-36.5,327.87-47.41,33.38-3.38,72.97-8.88,105.98-9.23,3.81-.04,7.24,1.73,10.89,2.34Z"/>
  <path d="M.18,249.2c-1.15-1.37,3.48-15.42,4.29-18.1,15.12-49.89,33.93-98.76,48.98-148.68,3.01-9.99,7.42-21.94,9.52-31.85,1.03-4.9,2.41-10.14.53-14.95-5.82-3.97-19.43,24.47-31.46,20.49-13.38-15.87,7.29-39.93,24.09-42.22,34.44-4.7,85.19,15.77,89,54.59,2.39,24.33-19.61,44.31-43.66,38.94-4.26-2.71,7.24-15.56,8.36-19.31,2.09-7.04-.24-23.26-1.75-30.92-1.15-5.81-4.99-19.06-9.42-22.76-4.09-3.4-23.86-5.58-26.58-1.12-2.4,3.93,12.78,33.91,13.25,42.08.39,6.76-14.69,37.3-18.52,45.62-15.95,34.62-33.49,70.44-50.67,104.51-2.77,5.49-6.35,14.44-9.7,19.04-.66.9-5.13,6-6.25,4.66Z"/>
  <path d="M352.57,94.16c2.29,2.3,20.3-12.87,23.57-14.96,9.16-5.85,19.07-11.06,28.62-16.24,8.61-4.67,34.98-19.66,42.94-20.42,10.51-1.01,40.86,19.68,41.89,30.5.92,9.65-22.06,18.17-29.88,19.46-3.12.52-6.13.73-9.28.51.05-8.06,5.45-13.32,1.4-21.5-1.32-2.65-10.34-11.4-12.99-12.4-3.11-1.17-8.69,2.56-11.79,4.26-29.3,16.03-59.96,47.04-95.85,44.61-7.75-.53-19.47-5.97-25.21-5.71-11.44.52-29.68,15.8-47.26,17.19-14.82,1.17-40.82.19-39.76-20.11.99-18.89,22.97-65.91,46.59-61.44,18.23,3.45-14.36,32.93-18.41,37.86-5.11,6.23-17.81,20.34-9.04,27.42,10.81,8.72,46.87,7.32,55.72-3.83,10.02-12.63-6.21-35.4,19.78-43.44,6.96-2.15,16.82-.84,21.96-3.36,5.33-2.62,7.05-11.69,14.78-15.12,17.14-7.6,15.49,16.55,13.18,26.92-2.26,10.19-11.29,18.64-10.99,29.79ZM333.83,64.52c-16.84,3.5,6.14,30.31,8.93,29.65,6.12-6.81,2.97-32.13-8.93-29.65Z"/>
  <path d="M504.95,87.63c2.7-3.19,9.34-6.02,12.89-10.66,7.19-9.39,6.37-26.7,1.79-37.22l-2.92-.75c-1.07.33-2.05,5.65-5.22,4.63-2.87-3.26,8.31-32.92,15.38-34.36,3.9.68,15.38,24.98,17.4,29.81,6.99,16.73,14.9,35.88-6.31,45.31-4.62,2.05-27.79,8.84-31.78,8.57-3.42-.23-3.1-3.12-1.22-5.33Z"/>
  <path d="M178.39,80.61c14.36-2.75,19.17,31.71,15.87,41.16-2.86,8.19-12.05,15.49-20.57,10.1-11.38-7.2-14.72-30.1-8.17-41.06,1.84-3.08,9.31-9.52,12.87-10.2Z"/>
  <path d="M191.92,42.91c4.47-.03,18.36,12.96,13.26,18.55-8.14,8.94-26.79-18.47-13.26-18.55Z"/>
</svg>