<svg width="1104" height="1396" viewBox="0 0 1104 1396" fill="none" xmlns="http://www.w3.org/2000/svg">
<path d="M837 1085C799 1002 717.5 1023.5 630.5 1048L576.5 1085V1224.5L837 1153.5V1085Z" fill="#549F65"/>
<path d="M1025.77 692.727C1003.03 800.299 895.818 791.585 873.377 788.263C850.935 784.942 789.843 746.736 759.746 711.803C722.124 668.136 765.543 608.439 815 581C864.457 553.561 1048.5 585.156 1025.77 692.727Z" fill="#C54646"/>
<path d="M104.563 353.258C104.563 353.258 412.168 282.698 523.254 274.708C628.298 267.155 847.603 296.578 930.737 385.418C943.564 399.123 989.334 286.902 989.334 286.902L757.18 182.562L698.649 31.6785L570.315 90.2192L444.125 39.5817L352.148 37.4363L213.701 226.238L38.5244 215.16L104.541 353.236L104.563 353.258Z" fill="#F0B800"/>
<path d="M436.18 248.612C734.985 327.075 796.799 970.518 701.823 970.518H701.801C683.562 970.518 666.154 969.601 650 968.32L570.692 1104C598.251 1222.73 627.295 1360.96 561.603 1378.55C443.337 1410.21 252.226 1426.06 106.883 1174.54C-38.4588 923.012 -48.6152 121.307 436.18 248.612Z" fill="#57B8C1"/>
<path d="M583.514 111.63C556.415 119.095 442.352 37.5676 393.65 47.5068C341.751 58.1028 274.027 166.208 264.243 216.605C410.592 219.473 557.006 201.477 701.604 181.621C713.577 179.979 732.183 183.875 732.139 169.864C732.117 159.356 691.667 52.3451 685.713 49.7399C668.486 42.1869 602.185 106.485 583.514 111.63Z" fill="#F0B800"/>
<path d="M592.247 1235.79C561.406 1241.18 457.478 1258.49 434.013 1246.43C411.183 1234.7 417.64 1190.98 405.798 1179.53C402.033 1175.87 322.664 1150.56 307.189 1143.62C220.071 1104.61 86.8331 1007.06 36.817 925.222C23.3773 903.22 16.7012 893.741 28.0615 868.368C37.211 847.964 84.491 799.932 85.1039 782.002C85.87 760.131 37.5394 639.59 28.0615 608.109C22.4579 589.413 -1.55417 516.423 0.0875001 502.631C2.12317 485.533 49.7534 457.248 65.2507 446.257C74.4003 439.755 137.353 402.013 137.331 397.043C128.904 385.79 111.83 378.61 102.418 369.699C76.4359 345.114 51.5264 316.172 37.1454 282.983C27.3173 260.324 -0.744278 189.48 44.3468 188.144L213.57 211.81C248.286 136.544 316.294 -8.91038 417.837 2.84592C455.245 7.18064 554.226 64.3421 573.489 63.4664C610.262 61.7587 670.259 -40.0854 717.802 17.7985C740.26 45.1204 774.166 172.513 781.192 177.483C786.314 181.095 833.813 183.853 846.334 186.699C889.214 196.42 940.653 229.653 973.771 258.288C989.947 272.277 1025.84 298.505 1015.29 321.558C1004.74 344.589 923.426 405.297 920.23 423.489L1005.01 685.324C975.916 738.479 924.302 778.258 890.659 829.005L852.988 1163.13C849.048 1172.78 843.663 1174.29 835.017 1177.95C785.373 1198.97 649.487 1225.87 592.247 1235.86V1235.79ZM583.514 111.63C556.415 119.095 442.352 37.5675 393.65 47.5067C341.751 58.1027 274.027 166.208 264.243 216.605C410.592 219.473 557.006 201.477 701.604 181.62C713.577 179.978 732.183 183.875 732.139 169.864C732.117 159.356 691.667 52.345 685.713 49.7397C668.486 42.1868 602.185 106.485 583.514 111.63ZM541.969 245.021C539.167 242.241 473.588 250.713 463.234 251.589C374.344 259.186 301.322 262.995 211.753 255.967C191.944 254.413 74.6191 233.353 69.6285 238.475C56.0793 252.355 115.267 319.675 126.474 330.315C134.223 337.692 172.068 370.925 180.058 370.991C197.066 371.166 270.021 310.152 297.098 313.676C306.247 314.858 440.514 399.845 453.866 410.748C475.799 428.656 487.553 462.414 450.561 455.715C417.968 449.804 310.8 361.402 287.445 363.153C272.976 364.248 180.233 422.548 161.649 434.392C147.859 443.171 53.7153 505.039 51.0886 511.913C46.8203 523.1 109.51 735.633 120.039 741.369C122.775 742.858 125.401 740.559 127.656 739.421C163.4 721.491 237.801 615.815 279.63 591.799C289.874 585.932 309.246 585.012 311.982 598.739C310.8 607.452 308.327 615.771 296.2 629.761C277.245 651.631 266.782 661.987 255.443 674.772C224.821 704.743 76.2827 852.364 70.0882 883.167C67.2645 897.178 87.0083 917.254 95.8951 928.441C157.228 1005.7 262.382 1080.16 353.943 1116.52C360.97 1119.3 392.796 1134.8 395.248 1127.29L305.766 759.014H349.5C366.223 833.143 387.915 906.285 406.345 979.91C420.507 1036.39 430.379 1094.19 445.701 1150.5C447.825 1158.29 456.405 1198.86 458.66 1201.51C464.591 1208.49 546.981 1203.28 551.578 1198.9C554.292 1196.32 552.65 1164.09 552.847 1157.06C554.533 1098.2 541.553 1086.5 581.281 1038.95C585.725 1033.63 615.69 1011.13 610.984 1003.86C607.504 998.519 549.739 985.405 539.736 982.077C505.48 970.759 445.351 965.921 481.774 918.633C486.043 913.094 532.819 870.535 536.453 870.535H623.921C629.086 870.535 627.313 824.539 627.27 819.066C626.679 695.482 610.306 563.93 613.961 440.894C614.355 427.517 614.29 410.266 620.615 398.138C633.793 372.874 684.203 357.593 711.301 358.841C770.62 361.599 883.807 439.755 830.464 506.331C785.395 562.594 684.028 532.273 684.028 471.412V409.084C649.356 413.594 658.221 442.777 657.783 468.128C654.981 631.074 679.978 802.953 673.083 964.607C670.632 1022.05 663.649 1013.19 629.349 1054.28C620.287 1065.14 603.564 1074.9 598.267 1089.9C591.525 1108.94 596.166 1119.78 596.56 1137.41C596.603 1139.59 596.472 1141.78 596.56 1143.97V1183.34L812.559 1134.69L850.843 811.031L957.551 674.816L870.346 412.959C871.287 391.767 964.774 319.675 963.767 309.889C869.952 194.646 718.371 219.713 588.964 240.708C584.039 246.05 584.105 331.059 583.448 345.639C577.232 485.708 575.349 626.061 569.855 766.173C566.681 790.343 470.83 782.133 464.066 774.514C457.521 767.115 458.178 747.061 466.671 741.719C479.126 733.882 523.1 746.798 528.77 731.649C527.128 600.337 543.785 464.275 542.012 333.708L541.925 244.999L541.969 245.021ZM733.277 406.938C730.169 407.924 731.045 464.932 732.161 471.456C738.772 510.337 797.828 493.764 801.286 470.449C804.176 450.964 741.836 404.224 733.299 406.938H733.277ZM628.342 909.92H558.363C554.008 909.92 535.38 928.703 529.864 931.725L531.112 937.198L632.676 962.462L628.342 909.92Z" fill="black"/>
<path d="M323.561 436.318C290.093 437.128 244.718 458.102 225.849 486.649C191.353 538.841 294.778 578.27 337.001 575.533C365.916 573.672 414.838 550.225 431.189 525.903C463.388 477.98 363.771 435.355 323.561 436.318Z" fill="black"/>
<path d="M627.899 910H545.541C540.414 910 518.492 928.59 512 931.58L513.468 936.997L633 962L627.899 910Z" fill="#FFF9F0"/>
<path d="M348.34 462.108C332.755 460.553 323.167 467.603 312.77 479.753C293.771 501.974 326.823 526.319 346.567 527.479C360.094 528.267 384.15 520.211 393.124 509.877C410.811 489.495 367.033 463.991 348.34 462.108Z" fill="#FFF9F0"/>
</svg>
