<svg width="4114" height="1663" viewBox="0 0 4114 1663" fill="none" xmlns="http://www.w3.org/2000/svg">
<rect width="4114" height="1663" fill="#FFF9F0"/>
<path d="M1159 1219C1121 1136 1039.5 1157.5 952.5 1182L898.5 1219V1358.5L1159 1287.5V1219Z" fill="#549F65"/>
<path d="M1347.77 826.727C1325.03 934.299 1217.82 925.585 1195.38 922.263C1172.93 918.942 1111.84 880.736 1081.75 845.803C1044.12 802.136 1087.54 742.439 1137 715C1186.46 687.561 1370.5 719.156 1347.77 826.727Z" fill="#C54646"/>
<path d="M426.563 487.258C426.563 487.258 734.168 416.698 845.254 408.708C950.298 401.155 1169.6 430.578 1252.74 519.418C1265.56 533.123 1311.33 420.902 1311.33 420.902L1079.18 316.562L1020.65 165.679L892.315 224.219L766.125 173.582L674.148 171.436L535.701 360.238L360.524 349.16L426.541 487.236L426.563 487.258Z" fill="#F0B800"/>
<path d="M758.18 382.612C1056.98 461.075 1118.8 1104.52 1023.82 1104.52H1023.8C1005.56 1104.52 988.154 1103.6 972 1102.32L892.692 1238C920.251 1356.73 949.295 1494.96 883.603 1512.55C765.337 1544.21 574.226 1560.06 428.883 1308.54C283.541 1057.01 273.385 255.307 758.18 382.612Z" fill="#57B8C1"/>
<path d="M905.514 245.63C878.415 253.095 764.352 171.568 715.65 181.507C663.751 192.103 596.027 300.208 586.243 350.605C732.592 353.473 879.006 335.477 1023.6 315.621C1035.58 313.979 1054.18 317.875 1054.14 303.864C1054.12 293.356 1013.67 186.345 1007.71 183.74C990.486 176.187 924.185 240.485 905.514 245.63Z" fill="#F0B800"/>
<path d="M914.247 1369.79C883.406 1375.18 779.478 1392.49 756.013 1380.43C733.183 1368.7 739.64 1324.98 727.798 1313.53C724.033 1309.87 644.664 1284.56 629.189 1277.62C542.071 1238.61 408.833 1141.06 358.817 1059.22C345.377 1037.22 338.701 1027.74 350.061 1002.37C359.211 981.964 406.491 933.932 407.104 916.002C407.87 894.131 359.539 773.59 350.061 742.109C344.458 723.413 320.446 650.423 322.088 636.631C324.123 619.533 371.753 591.248 387.251 580.257C396.4 573.755 459.353 536.013 459.331 531.043C450.904 519.79 433.83 512.61 424.418 503.699C398.436 479.114 373.526 450.172 359.145 416.983C349.317 394.324 321.256 323.48 366.347 322.144L535.57 345.81C570.286 270.544 638.294 125.09 739.837 136.846C777.245 141.181 876.226 198.342 895.489 197.466C932.262 195.759 992.259 93.9146 1039.8 151.799C1062.26 179.12 1096.17 306.513 1103.19 311.483C1108.31 315.095 1155.81 317.853 1168.33 320.699C1211.21 330.42 1262.65 363.653 1295.77 392.288C1311.95 406.277 1347.84 432.505 1337.29 455.558C1326.74 478.589 1245.43 539.297 1242.23 557.489L1327.01 819.324C1297.92 872.479 1246.3 912.258 1212.66 963.005L1174.99 1297.13C1171.05 1306.78 1165.66 1308.29 1157.02 1311.95C1107.37 1332.97 971.487 1359.87 914.247 1369.86V1369.79ZM905.514 245.63C878.415 253.095 764.352 171.567 715.65 181.507C663.751 192.103 596.027 300.208 586.243 350.605C732.592 353.473 879.006 335.477 1023.6 315.62C1035.58 313.978 1054.18 317.875 1054.14 303.864C1054.12 293.356 1013.67 186.345 1007.71 183.74C990.486 176.187 924.185 240.485 905.514 245.63ZM863.969 379.021C861.167 376.241 795.588 384.713 785.234 385.589C696.344 393.186 623.322 396.995 533.753 389.967C513.944 388.413 396.619 367.353 391.628 372.475C378.079 386.355 437.267 453.675 448.474 464.315C456.223 471.692 494.068 504.925 502.058 504.991C519.066 505.166 592.021 444.152 619.098 447.676C628.247 448.858 762.514 533.845 775.866 544.748C797.799 562.656 809.553 596.414 772.561 589.715C739.968 583.804 632.8 495.402 609.445 497.153C594.976 498.248 502.233 556.548 483.649 568.392C469.859 577.171 375.715 639.039 373.089 645.913C368.82 657.1 431.51 869.633 442.039 875.369C444.775 876.858 447.401 874.559 449.656 873.421C485.4 855.491 559.801 749.815 601.63 725.799C611.874 719.932 631.246 719.012 633.982 732.739C632.8 741.452 630.327 749.771 618.2 763.761C599.245 785.631 588.782 795.987 577.443 808.772C546.821 838.743 398.283 986.364 392.088 1017.17C389.264 1031.18 409.008 1051.25 417.895 1062.44C479.228 1139.7 584.382 1214.16 675.943 1250.52C682.97 1253.3 714.796 1268.8 717.248 1261.29L627.766 893.014H671.5C688.223 967.143 709.915 1040.29 728.345 1113.91C742.507 1170.39 752.379 1228.19 767.701 1284.5C769.825 1292.29 778.405 1332.86 780.66 1335.51C786.591 1342.49 868.981 1337.28 873.578 1332.9C876.292 1330.32 874.65 1298.09 874.847 1291.06C876.533 1232.2 863.553 1220.5 903.281 1172.95C907.725 1167.63 937.69 1145.13 932.984 1137.86C929.504 1132.52 871.739 1119.41 861.736 1116.08C827.48 1104.76 767.351 1099.92 803.774 1052.63C808.043 1047.09 854.819 1004.53 858.453 1004.53H945.921C951.086 1004.53 949.313 958.539 949.27 953.066C948.679 829.482 932.306 697.93 935.961 574.894C936.355 561.517 936.29 544.266 942.615 532.138C955.793 506.874 1006.2 491.593 1033.3 492.841C1092.62 495.599 1205.81 573.755 1152.46 640.331C1107.39 696.594 1006.03 666.273 1006.03 605.412V543.084C971.356 547.594 980.221 576.777 979.783 602.128C976.981 765.074 1001.98 936.953 995.083 1098.61C992.632 1156.05 985.649 1147.19 951.349 1188.28C942.287 1199.14 925.564 1208.9 920.267 1223.9C913.525 1242.94 918.166 1253.78 918.56 1271.41C918.603 1273.59 918.472 1275.78 918.56 1277.97V1317.34L1134.56 1268.69L1172.84 945.031L1279.55 808.816L1192.35 546.959C1193.29 525.767 1286.77 453.675 1285.77 443.889C1191.95 328.646 1040.37 353.713 910.964 374.708C906.039 380.05 906.105 465.059 905.448 479.639C899.232 619.708 897.349 760.061 891.855 900.173C888.681 924.343 792.83 916.133 786.066 908.514C779.521 901.115 780.178 881.061 788.671 875.719C801.126 867.882 845.1 880.798 850.77 865.649C849.128 734.337 865.785 598.275 864.012 467.708L863.925 378.999L863.969 379.021ZM1055.28 540.938C1052.17 541.924 1053.04 598.932 1054.16 605.456C1060.77 644.337 1119.83 627.764 1123.29 604.449C1126.18 584.964 1063.84 538.224 1055.3 540.938H1055.28ZM950.342 1043.92H880.363C876.008 1043.92 857.38 1062.7 851.864 1065.72L853.112 1071.2L954.676 1096.46L950.342 1043.92Z" fill="black"/>
<path d="M645.561 570.318C612.093 571.128 566.718 592.102 547.849 620.649C513.353 672.841 616.778 712.27 659.001 709.533C687.916 707.672 736.838 684.225 753.189 659.903C785.388 611.98 685.771 569.355 645.561 570.318Z" fill="black"/>
<path d="M949.899 1044H867.541C862.414 1044 840.492 1062.59 834 1065.58L835.468 1071L955 1096L949.899 1044Z" fill="#FFF9F0"/>
<path d="M670.34 596.108C654.755 594.553 645.167 601.603 634.77 613.753C615.771 635.974 648.823 660.319 668.567 661.479C682.094 662.267 706.15 654.211 715.124 643.877C732.811 623.495 689.033 597.991 670.34 596.108Z" fill="#FFF9F0"/>
<g clip-path="url(#clip0_11_272)">
<path d="M1506 1347.71C1506 1341.75 1553.72 1194 1612.05 1019.38C1670.38 844.754 1720.39 685.17 1723.19 664.747C1729.88 615.987 1716.04 615.466 1676.31 662.981C1645.44 699.897 1614.33 709.919 1605.12 685.917C1588.67 643.071 1616.58 589.566 1668.63 564.17C1698.26 549.708 1708.14 548.843 1768.3 555.451C1908.86 570.891 2001.32 652.634 2001.32 761.462C2001.32 814.307 1949.92 869.462 1894.5 876.084C1845.7 881.916 1836.86 870.414 1863.4 835.628C1884.41 808.088 1885.3 803.658 1880.68 749.065C1875.16 683.752 1856.79 630.764 1835.79 619.525C1827.94 615.328 1805.37 611.895 1785.63 611.895C1741.84 611.895 1741.17 616.234 1773.32 691.743C1786.29 722.218 1796.9 757.162 1796.9 769.398C1796.9 782.155 1746.22 894.948 1678.08 1033.83C1612.73 1167.03 1550.86 1294.59 1540.59 1317.28C1522.88 1356.43 1506 1371.28 1506 1347.71ZM1718.28 1175.63C1718.28 1153.75 1792.64 1128.62 2013.12 1076C2069.33 1062.58 2123.82 1049.73 2134.21 1047.43C2167.47 1040.09 2654.79 958.985 2740.38 946.547C3015.6 906.549 3602.51 846.338 3642.57 853.991C3665.32 858.335 3665.32 869.741 3642.57 875.212C3616.9 881.387 3261.23 939.264 3112.13 961.529C2941.94 986.944 2455.36 1067.29 2201.81 1111.85C1762.83 1188.99 1718.28 1194.87 1718.28 1175.63ZM2089.6 949.834C2051.79 914.621 2047.65 834.133 2082.03 802.682C2125.98 762.478 2150.33 776.615 2167.24 852.155C2177.97 900.088 2172.87 927.519 2149.13 949.633C2127.53 969.745 2111.04 969.8 2089.6 949.834ZM2311.88 913.117C2303.23 910.698 2286.03 901.536 2273.66 892.757C2252.91 878.039 2251.43 873.674 2254.61 836.694C2258.72 788.985 2292.79 716.375 2331.31 673.249C2379.06 619.801 2453.05 623.95 2423.88 678.438C2418.5 688.498 2392.05 720.075 2365.11 748.609C2295.69 822.132 2290.15 855.535 2344.86 870.723C2383.18 881.36 2421.64 881.264 2461.27 870.431C2509.63 857.211 2520.23 843.806 2520.23 795.885C2520.23 773.062 2523.75 745.145 2528.05 733.848C2537.47 709.08 2577.95 690.489 2622.46 690.489C2650.48 690.489 2656.37 687.191 2670.2 663.753C2695.46 620.952 2746.92 617.178 2749.62 657.928C2752.64 703.641 2746.03 742.256 2731.72 762.338C2723.44 773.966 2714.4 794.792 2711.63 808.618C2707.05 831.505 2707.94 833.038 2721.52 825.741C2729.73 821.333 2750.6 806.412 2767.89 792.583C2785.19 778.754 2832.95 750.157 2874.04 729.034C2915.12 707.912 2964.59 681.757 2983.99 670.911C3003.38 660.066 3028.48 651.192 3039.77 651.192C3068.76 651.192 3153.62 708.171 3169.05 737.995C3181.36 761.791 3181.17 763.599 3164.56 781.275C3145.98 801.043 3087.83 824.1 3056.56 824.1C3041.37 824.1 3038.67 821.284 3043.34 810.346C3059.02 773.706 3056.36 756.061 3031.38 731.092C3017.69 717.406 3001.76 706.208 2995.98 706.208C2990.2 706.208 2945.37 733.236 2896.34 766.27C2737.16 873.531 2676.29 892.404 2581.88 863.77C2545.59 852.764 2544.7 852.939 2486.57 882.431C2440.82 905.645 2416.85 912.788 2377.75 914.859C2350.17 916.32 2320.53 915.536 2311.88 913.117ZM2685.34 789.139C2685.34 743.68 2664.18 715.868 2639.61 729.017C2630.17 734.067 2622.44 744.617 2622.44 752.462C2622.44 771.529 2668.12 833.81 2677.74 827.865C2681.92 825.284 2685.34 807.857 2685.34 789.139ZM3224.32 816.912C3221.88 812.958 3231.67 802.435 3246.09 793.526C3260.51 784.618 3276.46 768.234 3281.52 757.118C3293.07 731.781 3293.48 671.01 3282.25 650.026C3274.07 634.757 3273.36 634.703 3262.84 648.578C3243.03 674.711 3249.1 623.817 3270.93 580.752C3302.19 519.086 3304.4 519.865 3347.9 607.965C3385.99 685.114 3396.45 731.659 3381.96 759.653C3368.44 785.803 3349.5 796.106 3285.67 812.04C3228.85 826.225 3230.02 826.132 3224.32 816.912ZM3442.82 780.498C3422.94 728.71 3527.48 549.779 3599.31 512.647C3626.81 498.43 3636.35 506.287 3636.56 543.321C3636.62 555.317 3643.75 585.256 3652.4 609.854C3684.91 702.329 3671.13 728.05 3567.68 767.93C3496.99 795.18 3450.26 799.884 3442.82 780.498ZM3598.1 705.472C3611.4 692.178 3613.53 683.495 3609.19 660.28C3606.24 644.475 3602.1 629.798 3599.99 627.664C3597.88 625.53 3585.91 636.141 3573.38 651.242C3542.28 688.754 3543.26 717.888 3575.74 721.307C3578.99 721.648 3589.05 714.522 3598.1 705.472ZM2159.23 702.98C2141.05 683.64 2139.43 658.869 2155.98 653.361C2171.32 648.255 2216.92 694.097 2211.23 708.91C2204.03 727.675 2179.84 724.917 2159.23 702.98Z" fill="black"/>
</g>
<defs>
<clipPath id="clip0_11_272">
<rect width="2162" height="853" fill="white" transform="translate(1506 506)"/>
</clipPath>
</defs>
</svg>
